<?xml version="1.0" encoding="UTF-8" standalone="no"?>
<!DOCTYPE svg PUBLIC "-//W3C//DTD SVG 1.1//EN"
 "http://www.w3.org/Graphics/SVG/1.1/DTD/svg11.dtd">
<!-- Generated by graphviz version 2.43.0 (0)
 -->
<!-- Title: %3 Pages: 1 -->
<svg width="1328pt" height="332pt"
 viewBox="0.00 0.00 1328.04 332.00" xmlns="http://www.w3.org/2000/svg" xmlns:xlink="http://www.w3.org/1999/xlink">
<g id="graph0" class="graph" transform="scale(1 1) rotate(0) translate(4 328)">
<title>%3</title>
<polygon fill="white" stroke="transparent" points="-4,4 -4,-328 1324.04,-328 1324.04,4 -4,4"/>
<!-- [root] aws_s3_bucket.staticweb (expand) -->
<g id="node1" class="node">
<title>[root] aws_s3_bucket.staticweb (expand)</title>
<polygon fill="none" stroke="black" points="666.54,-108 470.54,-108 470.54,-72 666.54,-72 666.54,-108"/>
<text text-anchor="middle" x="568.54" y="-86.3" font-family="Times,serif" font-size="14.00">aws_s3_bucket.staticweb</text>
</g>
<!-- [root] provider[&quot;registry.terraform.io/hashicorp/aws&quot;] -->
<g id="node7" class="node">
<title>[root] provider[&quot;registry.terraform.io/hashicorp/aws&quot;]</title>
<polygon fill="none" stroke="black" points="376.54,-36 51.27,-18 376.54,0 701.8,-18 376.54,-36"/>
<text text-anchor="middle" x="376.54" y="-14.3" font-family="Times,serif" font-size="14.00">provider[&quot;registry.terraform.io/hashicorp/aws&quot;]</text>
</g>
<!-- [root] aws_s3_bucket.staticweb (expand)&#45;&gt;[root] provider[&quot;registry.terraform.io/hashicorp/aws&quot;] -->
<g id="edge1" class="edge">
<title>[root] aws_s3_bucket.staticweb (expand)&#45;&gt;[root] provider[&quot;registry.terraform.io/hashicorp/aws&quot;]</title>
<path fill="none" stroke="black" d="M521.57,-71.88C492.84,-61.4 456.11,-48.01 426.8,-37.33"/>
<polygon fill="black" stroke="black" points="427.76,-33.95 417.17,-33.81 425.36,-40.53 427.76,-33.95"/>
</g>
<!-- [root] var.index -->
<g id="node8" class="node">
<title>[root] var.index</title>
<polygon fill="none" stroke="black" points="795.54,-36 719.54,-36 719.54,0 801.54,0 801.54,-30 795.54,-36"/>
<polyline fill="none" stroke="black" points="795.54,-36 795.54,-30 "/>
<polyline fill="none" stroke="black" points="801.54,-30 795.54,-30 "/>
<text text-anchor="middle" x="760.54" y="-14.3" font-family="Times,serif" font-size="14.00">var.index</text>
</g>
<!-- [root] aws_s3_bucket.staticweb (expand)&#45;&gt;[root] var.index -->
<g id="edge2" class="edge">
<title>[root] aws_s3_bucket.staticweb (expand)&#45;&gt;[root] var.index</title>
<path fill="none" stroke="black" d="M615.5,-71.88C644.03,-61.48 680.45,-48.2 709.66,-37.55"/>
<polygon fill="black" stroke="black" points="711.07,-40.76 719.27,-34.05 708.67,-34.18 711.07,-40.76"/>
</g>
<!-- [root] aws_s3_bucket_object.css (expand) -->
<g id="node2" class="node">
<title>[root] aws_s3_bucket_object.css (expand)</title>
<polygon fill="none" stroke="black" points="339.54,-180 139.54,-180 139.54,-144 339.54,-144 339.54,-180"/>
<text text-anchor="middle" x="239.54" y="-158.3" font-family="Times,serif" font-size="14.00">aws_s3_bucket_object.css</text>
</g>
<!-- [root] aws_s3_bucket_object.css (expand)&#45;&gt;[root] aws_s3_bucket.staticweb (expand) -->
<g id="edge3" class="edge">
<title>[root] aws_s3_bucket_object.css (expand)&#45;&gt;[root] aws_s3_bucket.staticweb (expand)</title>
<path fill="none" stroke="black" d="M319.6,-143.97C367.65,-133.74 428.9,-120.71 478.62,-110.13"/>
<polygon fill="black" stroke="black" points="479.35,-113.55 488.4,-108.05 477.89,-106.71 479.35,-113.55"/>
</g>
<!-- [root] aws_s3_bucket_object.file (expand) -->
<g id="node3" class="node">
<title>[root] aws_s3_bucket_object.file (expand)</title>
<polygon fill="none" stroke="black" points="557.04,-180 358.04,-180 358.04,-144 557.04,-144 557.04,-180"/>
<text text-anchor="middle" x="457.54" y="-158.3" font-family="Times,serif" font-size="14.00">aws_s3_bucket_object.file</text>
</g>
<!-- [root] aws_s3_bucket_object.file (expand)&#45;&gt;[root] aws_s3_bucket.staticweb (expand) -->
<g id="edge4" class="edge">
<title>[root] aws_s3_bucket_object.file (expand)&#45;&gt;[root] aws_s3_bucket.staticweb (expand)</title>
<path fill="none" stroke="black" d="M484.69,-143.88C499.07,-134.81 516.92,-123.55 532.45,-113.76"/>
<polygon fill="black" stroke="black" points="534.69,-116.48 541.28,-108.19 530.95,-110.56 534.69,-116.48"/>
</g>
<!-- [root] aws_s3_bucket_object.html (expand) -->
<g id="node4" class="node">
<title>[root] aws_s3_bucket_object.html (expand)</title>
<polygon fill="none" stroke="black" points="785.54,-180 575.54,-180 575.54,-144 785.54,-144 785.54,-180"/>
<text text-anchor="middle" x="680.54" y="-158.3" font-family="Times,serif" font-size="14.00">aws_s3_bucket_object.html</text>
</g>
<!-- [root] aws_s3_bucket_object.html (expand)&#45;&gt;[root] aws_s3_bucket.staticweb (expand) -->
<g id="edge5" class="edge">
<title>[root] aws_s3_bucket_object.html (expand)&#45;&gt;[root] aws_s3_bucket.staticweb (expand)</title>
<path fill="none" stroke="black" d="M653.14,-143.88C638.63,-134.81 620.62,-123.55 604.95,-113.76"/>
<polygon fill="black" stroke="black" points="606.37,-110.52 596.04,-108.19 602.66,-116.46 606.37,-110.52"/>
</g>
<!-- [root] aws_s3_bucket_object.js (expand) -->
<g id="node5" class="node">
<title>[root] aws_s3_bucket_object.js (expand)</title>
<polygon fill="none" stroke="black" points="993.04,-180 804.04,-180 804.04,-144 993.04,-144 993.04,-180"/>
<text text-anchor="middle" x="898.54" y="-158.3" font-family="Times,serif" font-size="14.00">aws_s3_bucket_object.js</text>
</g>
<!-- [root] aws_s3_bucket_object.js (expand)&#45;&gt;[root] aws_s3_bucket.staticweb (expand) -->
<g id="edge6" class="edge">
<title>[root] aws_s3_bucket_object.js (expand)&#45;&gt;[root] aws_s3_bucket.staticweb (expand)</title>
<path fill="none" stroke="black" d="M818.23,-143.97C770.03,-133.74 708.59,-120.71 658.73,-110.13"/>
<polygon fill="black" stroke="black" points="659.42,-106.7 648.91,-108.05 657.97,-113.55 659.42,-106.7"/>
</g>
<!-- [root] aws_s3_bucket_policy.public_read_access (expand) -->
<g id="node6" class="node">
<title>[root] aws_s3_bucket_policy.public_read_access (expand)</title>
<polygon fill="none" stroke="black" points="1320.04,-180 1011.04,-180 1011.04,-144 1320.04,-144 1320.04,-180"/>
<text text-anchor="middle" x="1165.54" y="-158.3" font-family="Times,serif" font-size="14.00">aws_s3_bucket_policy.public_read_access</text>
</g>
<!-- [root] aws_s3_bucket_policy.public_read_access (expand)&#45;&gt;[root] aws_s3_bucket.staticweb (expand) -->
<g id="edge7" class="edge">
<title>[root] aws_s3_bucket_policy.public_read_access (expand)&#45;&gt;[root] aws_s3_bucket.staticweb (expand)</title>
<path fill="none" stroke="black" d="M1020.26,-143.97C914.25,-131.54 772.88,-114.96 676.71,-103.68"/>
<polygon fill="black" stroke="black" points="677.02,-100.2 666.68,-102.51 676.2,-107.15 677.02,-100.2"/>
</g>
<!-- [root] output.websiturl (expand) -->
<g id="node9" class="node">
<title>[root] output.websiturl (expand)</title>
<ellipse fill="none" stroke="black" cx="160.54" cy="-234" rx="160.57" ry="18"/>
<text text-anchor="middle" x="160.54" y="-230.3" font-family="Times,serif" font-size="14.00">[root] output.websiturl (expand)</text>
</g>
<!-- [root] output.websiturl (expand)&#45;&gt;[root] aws_s3_bucket.staticweb (expand) -->
<g id="edge8" class="edge">
<title>[root] output.websiturl (expand)&#45;&gt;[root] aws_s3_bucket.staticweb (expand)</title>
<path fill="none" stroke="black" d="M145.9,-215.95C130.96,-196.42 112.37,-164.5 130.54,-144 152.09,-119.68 337.6,-104.31 460.18,-96.71"/>
<polygon fill="black" stroke="black" points="460.59,-100.19 470.36,-96.09 460.17,-93.21 460.59,-100.19"/>
</g>
<!-- [root] provider[&quot;registry.terraform.io/hashicorp/aws&quot;] (close) -->
<g id="node10" class="node">
<title>[root] provider[&quot;registry.terraform.io/hashicorp/aws&quot;] (close)</title>
<ellipse fill="none" stroke="black" cx="655.54" cy="-234" rx="291.65" ry="18"/>
<text text-anchor="middle" x="655.54" y="-230.3" font-family="Times,serif" font-size="14.00">[root] provider[&quot;registry.terraform.io/hashicorp/aws&quot;] (close)</text>
</g>
<!-- [root] provider[&quot;registry.terraform.io/hashicorp/aws&quot;] (close)&#45;&gt;[root] aws_s3_bucket_object.css (expand) -->
<g id="edge9" class="edge">
<title>[root] provider[&quot;registry.terraform.io/hashicorp/aws&quot;] (close)&#45;&gt;[root] aws_s3_bucket_object.css (expand)</title>
<path fill="none" stroke="black" d="M560.1,-216.94C497.35,-206.38 415.05,-192.53 349.55,-181.51"/>
<polygon fill="black" stroke="black" points="350.04,-178.05 339.6,-179.84 348.88,-184.95 350.04,-178.05"/>
</g>
<!-- [root] provider[&quot;registry.terraform.io/hashicorp/aws&quot;] (close)&#45;&gt;[root] aws_s3_bucket_object.file (expand) -->
<g id="edge10" class="edge">
<title>[root] provider[&quot;registry.terraform.io/hashicorp/aws&quot;] (close)&#45;&gt;[root] aws_s3_bucket_object.file (expand)</title>
<path fill="none" stroke="black" d="M608.11,-216.23C580.36,-206.42 545.1,-193.96 515.68,-183.56"/>
<polygon fill="black" stroke="black" points="516.55,-180.15 505.95,-180.12 514.21,-186.75 516.55,-180.15"/>
</g>
<!-- [root] provider[&quot;registry.terraform.io/hashicorp/aws&quot;] (close)&#45;&gt;[root] aws_s3_bucket_object.html (expand) -->
<g id="edge11" class="edge">
<title>[root] provider[&quot;registry.terraform.io/hashicorp/aws&quot;] (close)&#45;&gt;[root] aws_s3_bucket_object.html (expand)</title>
<path fill="none" stroke="black" d="M661.72,-215.7C664.53,-207.81 667.93,-198.3 671.05,-189.55"/>
<polygon fill="black" stroke="black" points="674.36,-190.7 674.43,-180.1 667.77,-188.34 674.36,-190.7"/>
</g>
<!-- [root] provider[&quot;registry.terraform.io/hashicorp/aws&quot;] (close)&#45;&gt;[root] aws_s3_bucket_object.js (expand) -->
<g id="edge12" class="edge">
<title>[root] provider[&quot;registry.terraform.io/hashicorp/aws&quot;] (close)&#45;&gt;[root] aws_s3_bucket_object.js (expand)</title>
<path fill="none" stroke="black" d="M713.43,-216.32C748.35,-206.26 793.04,-193.39 829.76,-182.81"/>
<polygon fill="black" stroke="black" points="830.75,-186.17 839.4,-180.04 828.82,-179.44 830.75,-186.17"/>
</g>
<!-- [root] provider[&quot;registry.terraform.io/hashicorp/aws&quot;] (close)&#45;&gt;[root] aws_s3_bucket_policy.public_read_access (expand) -->
<g id="edge13" class="edge">
<title>[root] provider[&quot;registry.terraform.io/hashicorp/aws&quot;] (close)&#45;&gt;[root] aws_s3_bucket_policy.public_read_access (expand)</title>
<path fill="none" stroke="black" d="M769.35,-217.38C846.78,-206.75 949.55,-192.65 1031.02,-181.46"/>
<polygon fill="black" stroke="black" points="1031.92,-184.87 1041.35,-180.04 1030.97,-177.94 1031.92,-184.87"/>
</g>
<!-- [root] root -->
<g id="node11" class="node">
<title>[root] root</title>
<ellipse fill="none" stroke="black" cx="395.54" cy="-306" rx="58.49" ry="18"/>
<text text-anchor="middle" x="395.54" y="-302.3" font-family="Times,serif" font-size="14.00">[root] root</text>
</g>
<!-- [root] root&#45;&gt;[root] output.websiturl (expand) -->
<g id="edge14" class="edge">
<title>[root] root&#45;&gt;[root] output.websiturl (expand)</title>
<path fill="none" stroke="black" d="M355.14,-292.97C319.18,-282.25 265.96,-266.4 224.27,-253.98"/>
<polygon fill="black" stroke="black" points="225.06,-250.57 214.48,-251.07 223.06,-257.28 225.06,-250.57"/>
</g>
<!-- [root] root&#45;&gt;[root] provider[&quot;registry.terraform.io/hashicorp/aws&quot;] (close) -->
<g id="edge15" class="edge">
<title>[root] root&#45;&gt;[root] provider[&quot;registry.terraform.io/hashicorp/aws&quot;] (close)</title>
<path fill="none" stroke="black" d="M438.18,-293.52C477.59,-282.91 536.93,-266.93 583.65,-254.35"/>
<polygon fill="black" stroke="black" points="584.68,-257.7 593.42,-251.72 582.86,-250.94 584.68,-257.7"/>
</g>
</g>
</svg>
